<svg xmlns="http://www.w3.org/2000/svg" width="679" height="679" viewBox="0 0 679 679">
  <g id="cellphone_ilustraion_white_theme" transform="translate(5520 18442)">
    <rect id="Retângulo_719" data-name="Retângulo 719" width="679" height="679" transform="translate(-5520 -18442)" fill="none"/>
    <g id="cellphone_ilustraion_white_theme-2" data-name="cellphone_ilustraion_white_theme" transform="translate(-5508 -18253.039) rotate(-19)">
      <g id="Cellphone" transform="translate(0 5.114)">
        <path id="Caminho_7" data-name="Caminho 7" d="M5.656,337.579a18.87,18.87,0,0,0-.385,26.553L124.56,487.595a18.828,18.828,0,0,0,26.825.259l364-362.425a18.83,18.83,0,0,0-3.01-29.12L369.244,3.082a18.718,18.718,0,0,0-23.431,2.306Z" transform="translate(1.112 0)" fill="#010101"/>
        <path id="Caminho_8" data-name="Caminho 8" d="M518.994,0a18.952,18.952,0,0,1-2.5,3.074L153.353,372.346a18.828,18.828,0,0,1-26.826-.259L4.672,243.489a18.751,18.751,0,0,1-2.227-2.808c-4.673,7.189-2.256,15.226,3.939,21.637L125.672,385.78a18.828,18.828,0,0,0,26.826.259l364-362.425A18.835,18.835,0,0,0,519,0Z" transform="translate(0 101.815)" fill="#d6d5d5"/>
        <path id="Caminho_9" data-name="Caminho 9" d="M465.241,87.563l-14.813-9.444L337.99,5.671,330.358.805a5.135,5.135,0,0,0-6.413.721L1.482,318.42a5.135,5.135,0,0,0,.13,7.346l117.11,114.111a5.136,5.136,0,0,0,7.148-.1L466.106,95.53a5.135,5.135,0,0,0-.865-7.967Z" transform="translate(20.051 18.719)" fill="#fff"/>
        <path id="Caminho_10" data-name="Caminho 10" d="M0,287.241,108.159,389.41,413.921,80.159,292.662,0Z" transform="translate(35.258 50.245)" fill="#e6e6e6"/>
        <path id="Caminho_81" data-name="Caminho 81" d="M8.328,0c4.6,0,8.328,3.356,8.328,7.5s-3.729,7.5-8.328,7.5S0,11.634,0,7.5,3.729,0,8.328,0Z" transform="matrix(0.978, -0.208, 0.208, 0.978, 393.827, 65.623)" fill="#010101"/>
      </g>
      <g id="notification3" transform="translate(39.74 152.659)">
        <rect id="Retângulo_12" data-name="Retângulo 12" width="244.267" height="48.227" transform="translate(0)" fill="#e6e6e6"/>
        <path id="Caminho_16" data-name="Caminho 16" d="M0,37.812H233.853V0H0Z" transform="translate(5.207 5.207)" fill="#fff"/>
        <circle id="Elipse_9" data-name="Elipse 9" cx="14.405" cy="14.405" r="14.405" transform="translate(11.273 10.021)" fill="#ccc"/>
        <rect id="Retângulo_19" data-name="Retângulo 19" width="99.934" height="3.132" transform="translate(60.126 18.79)" fill="#ccc"/>
        <rect id="Retângulo_20" data-name="Retângulo 20" width="142.176" height="3.132" transform="translate(60.127 26.932)" fill="#ccc"/>
      </g>
      <g id="notification2" transform="translate(39.74 76.455)">
        <rect id="Retângulo_13" data-name="Retângulo 13" width="244.267" height="48.227" transform="translate(0)" fill="#e6e6e6"/>
        <path id="Caminho_15" data-name="Caminho 15" d="M0,37.812H233.853V0H0Z" transform="translate(5.207 5.375)" fill="#fff"/>
        <circle id="Elipse_8" data-name="Elipse 8" cx="14.405" cy="14.405" r="14.405" transform="translate(11.273 10.021)" fill="#ccc"/>
        <rect id="Retângulo_17" data-name="Retângulo 17" width="142.176" height="3.132" transform="translate(60.127 18.79)" fill="#ccc"/>
        <path id="Caminho_82" data-name="Caminho 82" d="M0,0H116.59V3.132H0Z" transform="translate(60.127 26.932)" fill="#ccc"/>
      </g>
      <g id="notigication1" transform="translate(39.741 0)">
        <rect id="Retângulo_14" data-name="Retângulo 14" width="244.267" height="48.227" transform="translate(0 0)" fill="#e6e6e6"/>
        <path id="Caminho_14" data-name="Caminho 14" d="M0,37.812H233.853V0H0Z" transform="translate(5.207 5.207)" fill="#fff"/>
        <circle id="Elipse_7" data-name="Elipse 7" cx="14.405" cy="14.405" r="14.405" transform="translate(11.272 9.394)" fill="#2485f3"/>
        <rect id="Retângulo_15" data-name="Retângulo 15" width="141.574" height="3.132" transform="translate(60.126 18.163)" fill="#2485f3"/>
        <rect id="Retângulo_16" data-name="Retângulo 16" width="66.623" height="3.132" transform="translate(60.126 26.305)" fill="#2485f3"/>
      </g>
    </g>
  </g>
</svg>
