<svg xmlns="http://www.w3.org/2000/svg" width="679.269" height="679" viewBox="0 0 679.269 679">
  <g id="clock_ilustraion_white_theme" transform="translate(6169 18461)">
    <rect id="Retângulo_718" data-name="Retângulo 718" width="679" height="679" transform="translate(-6169 -18461)" fill="none"/>
    <g id="clock_ilustraion_white_theme-2" data-name="clock_ilustraion_white_theme" transform="translate(-6169 -18392)">
      <g id="Arvore2" transform="translate(578.014 171.774)">
        <path id="Caminho_125" data-name="Caminho 125" d="M828.084,533.9H804.361l10.815-366.319Z" transform="translate(-789.009 -167.577)" fill="#010101"/>
        <path id="Caminho_126" data-name="Caminho 126" d="M817.03,236.169,842.5,200.933l-25.817,43.958-2.791-4.884Z" transform="translate(-788.771 -166.743)" fill="#010101"/>
        <path id="Caminho_127" data-name="Caminho 127" d="M814.852,270.886,789.385,235.65,815.2,279.608l2.791-4.884Z" transform="translate(-789.385 -165.874)" fill="#010101"/>
      </g>
      <g id="Arvore1" transform="translate(0 76.736)">
        <path id="Caminho_143" data-name="Caminho 143" d="M115.826,0A115.826,115.826,0,1,1,0,115.826,115.826,115.826,0,0,1,115.826,0Z" transform="translate(0 0)" fill="#d6d5d5"/>
        <path id="Caminho_122" data-name="Caminho 122" d="M124.471,533.52H100.747L111.562,167.2Z" transform="translate(2.52 -68.818)" fill="#010101"/>
        <path id="Caminho_123" data-name="Caminho 123" d="M113.417,235.793l25.468-35.236-25.817,43.958-2.791-4.884Z" transform="translate(2.758 -67.984)" fill="#010101"/>
        <path id="Caminho_124" data-name="Caminho 124" d="M111.238,270.51,85.771,235.274l25.817,43.958,2.791-4.884Z" transform="translate(2.145 -67.116)" fill="#010101"/>
      </g>
      <g id="Clock" transform="translate(149.956 36.537)">
        <circle id="Elipse_45" data-name="Elipse 45" cx="215.769" cy="215.769" r="215.769" transform="translate(0 70.017)" fill="#010101"/>
        <circle id="Elipse_46" data-name="Elipse 46" cx="197.907" cy="197.907" r="197.907" transform="translate(17.862 87.879)" fill="#fff"/>
        <circle id="Elipse_47" data-name="Elipse 47" cx="26.435" cy="26.435" r="26.435" transform="translate(188.621 260.065)" fill="#010101"/>
        <rect id="Retângulo_22" data-name="Retângulo 22" width="11.431" height="21.434" transform="translate(209.34 97.882)" fill="#010101"/>
        <rect id="Retângulo_23" data-name="Retângulo 23" width="11.431" height="21.434" transform="translate(209.34 453.686)" fill="#010101"/>
        <rect id="Retângulo_24" data-name="Retângulo 24" width="11.431" height="21.434" transform="translate(47.871 280.785) rotate(90)" fill="#010101"/>
        <rect id="Retângulo_25" data-name="Retângulo 25" width="11.431" height="21.434" transform="translate(403.673 280.785) rotate(90)" fill="#010101"/>
        <path id="Caminho_128" data-name="Caminho 128" d="M450.924,326.831l9.769-22.338,122.412,67.8Z" transform="translate(-243.489 -28.854)" fill="#010101"/>
        <rect id="Retângulo_26" data-name="Retângulo 26" width="55.728" height="64.302" transform="translate(187.906 17.862)" fill="#010101"/>
        <ellipse id="Elipse_48" data-name="Elipse 48" cx="64.302" cy="17.862" rx="64.302" ry="17.862" transform="translate(151.468)" fill="#010101"/>
      </g>
      <g id="CloudSnow" transform="translate(505.358 0)">
        <path id="Caminho_141" data-name="Caminho 141" d="M1046.052,222.8a45.794,45.794,0,0,0-89.849-9.655c-.555-.02-1.109-.042-1.669-.042A45.8,45.8,0,0,0,910.6,245.991a32.364,32.364,0,0,0-38.405,9.56h142.848a30.976,30.976,0,0,0,31.044-32.071Q1046.073,223.143,1046.052,222.8Z" transform="translate(-872.193 -179.594)" fill="#e6e6e6"/>
        <circle id="Elipse_53" data-name="Elipse 53" cx="12.3" cy="12.3" r="12.3" transform="translate(42.141 114.989)" fill="#e6e6e6"/>
        <circle id="Elipse_54" data-name="Elipse 54" cx="10.242" cy="10.242" r="10.242" transform="translate(81.339 88.048)" fill="#e6e6e6"/>
        <circle id="Elipse_55" data-name="Elipse 55" cx="12.3" cy="12.3" r="12.3" transform="translate(129.268 141.639)" fill="#e6e6e6"/>
        <circle id="Elipse_56" data-name="Elipse 56" cx="12.3" cy="12.3" r="12.3" transform="translate(35.992 198.015)" fill="#e6e6e6"/>
        <circle id="Elipse_57" data-name="Elipse 57" cx="12.3" cy="12.3" r="12.3" transform="translate(129.268 268.741)" fill="#e6e6e6"/>
        <circle id="Elipse_58" data-name="Elipse 58" cx="5.125" cy="5.125" r="5.125" transform="translate(139.147 192.89)" fill="#e6e6e6"/>
        <circle id="Elipse_59" data-name="Elipse 59" cx="5.125" cy="5.125" r="5.125" transform="translate(114.918 103.714)" fill="#e6e6e6"/>
        <circle id="Elipse_60" data-name="Elipse 60" cx="5.125" cy="5.125" r="5.125" transform="translate(97.493 230.815)" fill="#e6e6e6"/>
        <circle id="Elipse_61" data-name="Elipse 61" cx="5.125" cy="5.125" r="5.125" transform="translate(101.592 225.69)" fill="#e6e6e6"/>
        <circle id="Elipse_62" data-name="Elipse 62" cx="5.125" cy="5.125" r="5.125" transform="translate(104.667 220.565)" fill="#e6e6e6"/>
        <circle id="Elipse_63" data-name="Elipse 63" cx="5.125" cy="5.125" r="5.125" transform="translate(92.366 263.616)" fill="#e6e6e6"/>
        <circle id="Elipse_64" data-name="Elipse 64" cx="5.125" cy="5.125" r="5.125" transform="translate(122 321.098)" fill="#e6e6e6"/>
        <circle id="Elipse_65" data-name="Elipse 65" cx="5.125" cy="5.125" r="5.125" transform="translate(58.541 324.092)" fill="#e6e6e6"/>
        <circle id="Elipse_66" data-name="Elipse 66" cx="5.125" cy="5.125" r="5.125" transform="translate(64.69 166.24)" fill="#e6e6e6"/>
        <circle id="Elipse_67" data-name="Elipse 67" cx="5.125" cy="5.125" r="5.125" transform="translate(88.267 258.491)" fill="#e6e6e6"/>
        <circle id="Elipse_68" data-name="Elipse 68" cx="5.125" cy="5.125" r="5.125" transform="translate(83.142 250.291)" fill="#e6e6e6"/>
      </g>
    </g>
  </g>
</svg>
