<svg xmlns="http://www.w3.org/2000/svg" width="36" height="36" viewBox="0 0 36 36">
  <g id="icon_inativo" transform="translate(4891 -8797)">
    <g id="Elipse_173" data-name="Elipse 173" transform="translate(-4891 8797)" fill="#2485f3" stroke="#e7f2fe" stroke-width="2">
      <circle cx="18" cy="18" r="18" stroke="none"/>
      <circle cx="18" cy="18" r="17" fill="none"/>
    </g>
    <g id="directions_car_black_24dp" transform="translate(-4885 8802)">
      <path id="Caminho_5339" data-name="Caminho 5339" d="M0,0H24V24H0Z" fill="none"/>
      <path id="Caminho_5340" data-name="Caminho 5340" d="M18.92,6.01A1.494,1.494,0,0,0,17.5,5H6.5A1.5,1.5,0,0,0,5.08,6.01L3,12v8a1,1,0,0,0,1,1H5a1,1,0,0,0,1-1V19H18v1a1,1,0,0,0,1,1h1a1,1,0,0,0,1-1V12ZM6.85,7H17.14l1.08,3.11H5.77ZM19,17H5V12H19Z" fill="rgba(0,0,0,0.38)"/>
      <circle id="Elipse_170" data-name="Elipse 170" cx="1.5" cy="1.5" r="1.5" transform="translate(6 13)" fill="rgba(0,0,0,0.38)"/>
      <circle id="Elipse_171" data-name="Elipse 171" cx="1.5" cy="1.5" r="1.5" transform="translate(15 13)" fill="rgba(0,0,0,0.38)"/>
    </g>
  </g>
</svg>
