<svg xmlns="http://www.w3.org/2000/svg" width="64" height="64" viewBox="0 0 256 256">
  <g id="location" transform="translate(4336 -1064)">
    <g id="place_black_24dp" transform="translate(-4336 1064)">
      <path id="Caminho_5178" data-name="Caminho 5178" d="M0,0H256V256H0Z" fill="none"/>
      <path id="Caminho_5179" data-name="Caminho 5179" d="M88.824,2c44.533,0,84.824,34.265,84.824,87.258q0,52.993-84.824,125.566Q4.053,142.2,4,89.258C4,36.265,44.291,2,88.824,2Z" transform="translate(39.176 19.588)" fill="#2485f3" stroke="#1f72d1" stroke-linecap="round" stroke-linejoin="round" stroke-width="2"/>
    </g>
    <path id="warning_black_24dp_1_" data-name="warning_black_24dp (1)" d="M11.215,78.318H77.029a8.738,8.738,0,0,0,7.56-13.11L51.682,8.352a8.736,8.736,0,0,0-15.121,0L3.655,65.207a8.738,8.738,0,0,0,7.56,13.11ZM44.122,47.727a4.383,4.383,0,0,1-4.37-4.37v-8.74a4.37,4.37,0,0,1,8.74,0v8.74A4.383,4.383,0,0,1,44.122,47.727Zm4.37,17.481h-8.74v-8.74h8.74Z" transform="translate(-4252.122 1122.227)" fill="#fff"/>
  </g>
</svg>
