<svg xmlns="http://www.w3.org/2000/svg" width="4505" height="1802" viewBox="0 0 4505 1802">
  <g id="Grupo_7902" data-name="Grupo 7902" transform="translate(4420 18763)">
    <g id="Grupo_7903" data-name="Grupo 7903" transform="translate(85 -1359)">
      <rect id="Retângulo_892" data-name="Retângulo 892" width="4505" height="1802" transform="translate(-4505 -17404)" fill="#ffffff"/>
    </g>
    <g id="BaseTech" transform="translate(2069.676 -22254.666)">
      <g id="Grupo_1" data-name="Grupo 1" transform="translate(-4593.676 3797.667)">
        <g id="logo-basetech">
          <path id="logo-basetech-2" data-name="logo-basetech" d="M464.46,922.434c-1.484,0-2.985-.023-4.462-.069a206.726,206.726,0,0,1-66.689-13.727,272.25,272.25,0,0,1-53.037-27.332,311.237,311.237,0,0,1-35.023-26.781c-8.133-7.215-12.6-12.024-12.644-12.072l30.074,48.469h0l-.017,0a78.425,78.425,0,0,1-11.679-3.528,200.461,200.461,0,0,1-32.805-16.152A361.4,361.4,0,0,1,227.7,834.111c-21.439-18.579-43.2-40.939-64.692-66.457A317.834,317.834,0,0,1,140.8,727.678q-.679-1.456-1.346-2.925c-6.594,7.5-34.538,32.963-69.575-25.822C29.682,631.5,2.649,529.385.4,474s5.326-113.7,15.207-178.7,16.643-82.255,54.269-131.632,96.239-65.874,96.239-65.874S254.632,1.041,396.674.011s209.6,71.876,282.538,182.7,3.6,273.276,3.6,273.276-12.265-23.33-15.1-47.517c-2.054-17.561-1.126-49.509-.463-65.7-3.926-4.451-12.555-11.147-31.464-18.287C602.522,311.923,533.472,298.3,533.472,298.3s-3.969-16.139,3.479-17.937c7.579-1.831,48.895-2.231,82.342,7.2,18.7,5.275,34.659,14.726,43.584,20.732a599.5,599.5,0,0,0-20.72-67.431S591.722,97.793,420.347,99.852,188.757,123.011,124,327.182L118.5,508.469c.092,2.8.235,5.691.442,8.631.888,12.6,2.776,23.535,5.61,32.486,3.543,11.191,8.583,19.3,14.98,24.115,6.295,4.733,14.614,7.133,24.725,7.133,14.544,0,30.344-5.015,41.039-9.221a179.723,179.723,0,0,0,19.921-9.221,139.522,139.522,0,0,0,3.038,21.267c2.475,11.559,7.5,28.873,17.386,45.7s26.621,33.165,38.922,43.9c13.32,11.63,24.459,19.388,24.569,19.465l.007-.021a185.692,185.692,0,0,1,9.153-19.978c3.646-6.976,7.693-13.89,12.031-20.553a240.506,240.506,0,0,1,17.514-23.638c15.781-18.729,33.622-33.763,53.027-44.681a166.31,166.31,0,0,1,36.289-15.117,172.65,172.65,0,0,1,43.32-6.349c1.151-.025,2.311-.036,3.449-.036a140.377,140.377,0,0,1,37.254,4.8,118.514,118.514,0,0,1,29.991,12.876c15.957,9.675,29.869,23.383,41.353,40.742a196.825,196.825,0,0,1,21.772,45.358,273.175,273.175,0,0,1,8.5,31.521,29.717,29.717,0,0,0,1.184,4.763.319.319,0,0,0,.267.139c1.553,0,7.138-9.355,14.575-24.413,8.18-16.563,17.259-37.307,24.906-56.912,10.182-26.1,15.354-56.922,17.9-78.182,2.762-23.06,3.116-40.12,3.119-40.289,0,0,.008.016.016.042.26.9,1.638,5.822,3.155,13.967a303.69,303.69,0,0,1,4.5,39.18,382.2,382.2,0,0,1-1.7,60.075,429.348,429.348,0,0,1-15.42,76.7,774.984,774.984,0,0,1-27.112,76.286c-8.361,20.157-17.587,40.064-27.422,59.164-16.742,32.51-29.62,51.67-29.749,51.86l4.522-47.482c0,.005-.007.014-.012.029A134.185,134.185,0,0,1,588.11,846.6a181.9,181.9,0,0,1-23.29,30.9,147.894,147.894,0,0,1-40.7,30.9,129.488,129.488,0,0,1-27.359,10.183,134.524,134.524,0,0,1-32.286,3.862ZM358.434,668.84c-37.552,47.232-43.016,90.951-15.386,123.1,9.012,10.487,26.232,15.806,51.179,15.806,28.511,0,58.808-6.921,70.214-9.527,2.533-.578,4.06-.927,4.384-.927,1.607,0,3.906-2.5,6-6.516,5.664-10.871,7.878-28.124-.647-40.316-6.825-9.764-22.288-17.065-34.058-21.471a200.033,200.033,0,0,0-24.149-7.3.19.19,0,0,1,.042-.021,224.684,224.684,0,0,1,21.9-7.657,211.674,211.674,0,0,1,21.88-5.279,136.272,136.272,0,0,1,24.222-2.4c1.211,0,2.419.022,3.589.067a138.384,138.384,0,0,1,40.358,7.9c10.158,3.638,18.427,8.162,20.109,11a1.369,1.369,0,0,1,.2,1.323c-.755,1.513-5.935,3.431-12.494,5.86-11.1,4.112-26.31,9.743-33.5,17.977-9.192,10.524-3.754,28.431-1.142,37.036a24.326,24.326,0,0,1,1.142,4.444c0,1.214,4.53,4.38,11.273,7.162a71.926,71.926,0,0,0,26.593,5.412,51.516,51.516,0,0,0,27.03-7.222c14.656-8.844,25.392-24.875,30.232-45.139,5.11-21.395,2.927-45.756-6.148-68.6-20.685-52.072-71.674-72.661-109.052-74.468-2.47-.12-4.965-.181-7.412-.181C429.2,608.911,390.051,629.073,358.434,668.84ZM15.606,510.916S26.42,587.295,50.946,627.563c18.64,30.6,51.337,32.225,65.961,31.241a437.159,437.159,0,0,1-9.436-53.461,474.882,474.882,0,0,1-2.754-70.891c.408-11.227,1.238-22.3,2.417-32.46C95.5,488.46,75.508,470.029,50.946,466.837a43.42,43.42,0,0,0-5.581-.377C11.763,466.455,15.606,510.916,15.606,510.916ZM261.054,267.083c30.794-10.872,128.6-4.171,137.764,0s4.222,24.581,4.222,24.581-81.691-4.61-129.779,5.567-62.576,35.138-62.576,35.138S217.928,282.31,261.054,267.083Z" transform="translate(0)" fill="#222"/>
        </g>
        <text id="BaseTech-2" data-name="BaseTech" transform="translate(186.048 1054.091)" fill="#222" font-size="106" font-family="Montserrat-SemiBold, Montserrat" font-weight="600"><tspan x="0" y="0">BaseTech</tspan></text>
        <text id="Inc." transform="translate(513.048 1162.091)" fill="#222" font-size="106" font-family="Montserrat-SemiBold, Montserrat" font-weight="600"><tspan x="0" y="0">Inc.</tspan></text>
      </g>
    </g>
  </g>
</svg>
