<svg xmlns="http://www.w3.org/2000/svg" width="4505" height="1802" viewBox="0 0 4505 1802">
  <g id="Grupo_7903" data-name="Grupo 7903" transform="translate(4505 17404)">
    <rect id="Retângulo_892" data-name="Retângulo 892" width="4505" height="1802" transform="translate(-4505 -17404)" fill="#ffffff"/>
    <g id="Grupo_7902" data-name="Grupo 7902" transform="translate(-3092.683 -17003.053)">
      <g id="Grupo_12" data-name="Grupo 12">
        <path id="União_4" data-name="União 4" d="M390.917,709.456v-543.6h51.341v78.52q24.16-39.261,63.8-60.4t89.467-21.14q55.87,0,101.17,25.293t70.97,71.348q25.669,46.054,25.67,104.944,0,59.646-25.67,105.7T697.07,541.469q-44.923,25.292-101.548,25.292-48.321,0-87.2-20.007t-63.8-58.513V709.456Zm124.952-480.18q-33.6,19.63-52.85,54.737t-19.253,80.408q0,45.3,19.253,80.785t52.85,54.738q33.6,19.252,75.878,19.252,41.525,0,75.5-19.252t53.228-54.738q19.252-35.485,19.253-80.785t-19.253-80.408a139.217,139.217,0,0,0-53.228-54.737q-33.974-19.63-75.5-19.63Q549.467,209.646,515.869,229.276ZM44.75,523.348Q-.173,479.936-.173,396.131V165.856h53.6v224.99q0,62.666,30.955,95.13t88.335,32.465q62.666,0,98.905-38.127t36.239-106.078V165.856h53.6v397.13h-51.34v-72.48A147.032,147.032,0,0,1,252,546.754q-37,20.007-84.56,20.007Q89.671,566.761,44.75,523.348Zm810.936-1.366q-39.261-31.709-39.26-83.8,0-50.586,36.617-81.54t116.647-30.956h126.085v-24.16q0-51.341-28.689-78.143t-83.805-26.8a213.038,213.038,0,0,0-72.48,12.458q-34.73,12.458-59.646,34.352L827,203.372q30.2-25.669,72.48-39.637a282.159,282.159,0,0,1,89.09-13.968q77.765,0,119.291,38.883t41.525,115.138V549.917h-51.34v-61.91q-18.12,30.955-53.228,48.32t-83.427,17.366Q894.945,553.693,855.686,521.982Zm13.59-85.315q0,34.73,26.425,54.737t73.99,20.008q45.3,0,77.765-20.762t48.319-60.023V365.7H971.2Q869.276,365.7,869.276,436.667ZM1010.461,78.42q-13.59-7.927-29.445-22.272Q967.426,44.822,959.5,39.915a31.714,31.714,0,0,0-16.987-4.908q-17.365,0-27.935,12.835T903.251,83.327H870.786q1.509-37.75,19.63-60.4T938.736.277q17.365,0,30.578,7.55t30.578,22.65a177.417,177.417,0,0,0,20.385,15.854,31.866,31.866,0,0,0,17.365,5.286q16.61,0,27.18-12.458T1076.9,4.808h32.466q-1.511,36.994-19.631,59.267t-48.32,22.273Q1024.052,86.348,1010.461,78.42Z" transform="translate(505.516 287.751)" stroke="rgba(0,0,0,0)" stroke-miterlimit="10" stroke-width="1"/>
        <path id="União_6" data-name="União 6" d="M406.995,859.864c-14.637-14.026-15.884-35.826-15.884-62.66V732.222h-.147V383.051c-53.227,2.97-103.783,16.019-139.45,37.308a276.755,276.755,0,0,1,0-69.711C256.383,312.211,271,266.611,271,266.611s-25.381,30.357-38.642,69.875-14.414,88.2-14.414,88.2C169.9,378.963,64.959,368.137,0,408.944c0,0,6.828-311.229,387.365-357.54V27.346c-.024-.4-.029-.806-.029-1.211C387.335,11.7,399.6,0,414.716,0s27.375,11.7,27.375,26.134q0,.468-.018.935V51.4c376.762,37.649,390.1,354.417,390.1,354.417-45.146-23.529-149.247-34.356-220.128,18.866,0,0-5.14-45.329-16.572-78.2s-29.145-53.3-29.145-53.3,6.681,35.667,8.909,67.458a450.1,450.1,0,0,1,0,59.719c-37.137-21.706-84.042-33.591-132-36.949V732.222h-.259V797.2c0,11.891,2.129,20.965,7.927,27.216s14.179,9.374,25.152,9.374q19.212,0,32.021-10.062l16.007,40.707a67.392,67.392,0,0,1-24.47,12.35,110.138,110.138,0,0,1-30.415,4.117Q428.951,880.906,406.995,859.864Z" transform="translate(0 0)" fill="#2485f3"/>
      </g>
      <rect id="Retângulo_714" data-name="Retângulo 714" width="117.927" height="52.291" transform="translate(358.157 533.583)" fill="#2485f3"/>
    </g>
  </g>
</svg>
