<svg xmlns="http://www.w3.org/2000/svg" width="169.18" height="101.277" viewBox="0 0 169.18 101.277">
  <g id="Grupo_310" data-name="Grupo 310" transform="translate(40 -261.284)">
    <g id="Grupo_12" data-name="Grupo 12" transform="translate(-40 261.284)">
      <path id="União_4" data-name="União 4" d="M39.271,71.825V17.1H44.44v7.9a16.62,16.62,0,0,1,6.422-6.08A18.83,18.83,0,0,1,59.868,16.8a20.526,20.526,0,0,1,10.183,2.546A18.206,18.206,0,0,1,77.2,26.528,21.329,21.329,0,0,1,79.78,37.093,21.485,21.485,0,0,1,77.2,47.732a18.281,18.281,0,0,1-7.105,7.182,20.472,20.472,0,0,1-10.222,2.546,18.9,18.9,0,0,1-8.779-2.014,16.637,16.637,0,0,1-6.422-5.89V71.825ZM51.85,23.488A14.1,14.1,0,0,0,46.53,29a16.556,16.556,0,0,0-1.939,8.095,16.77,16.77,0,0,0,1.939,8.132,13.765,13.765,0,0,0,5.32,5.511,15.947,15.947,0,0,0,15.238,0,13.691,13.691,0,0,0,5.358-5.511,16.77,16.77,0,0,0,1.939-8.132A16.556,16.556,0,0,0,72.446,29a14.017,14.017,0,0,0-5.358-5.51,15.68,15.68,0,0,0-15.238,0ZM4.426,53.09Q-.1,48.72-.1,40.284V17.1H5.3V39.752q0,6.309,3.116,9.576T17.308,52.6q6.309,0,9.956-3.838t3.648-10.678V17.1h5.4V57.081H31.14v-7.3a14.8,14.8,0,0,1-5.852,5.662,17.61,17.61,0,0,1-8.512,2.014Q8.947,57.461,4.426,53.09Zm83.8-.135a10.308,10.308,0,0,1-3.952-8.436,10.22,10.22,0,0,1,3.686-8.208Q91.644,33.2,99.7,33.2h12.692V30.763q0-5.168-2.887-7.866t-8.437-2.7a21.436,21.436,0,0,0-7.3,1.254,18.383,18.383,0,0,0-6,3.458l-2.432-4.028a21.56,21.56,0,0,1,7.3-3.991,28.413,28.413,0,0,1,8.968-1.406q7.829,0,12.009,3.914t4.18,11.59V55.768h-5.168V49.535a12.376,12.376,0,0,1-5.359,4.864,18.759,18.759,0,0,1-8.4,1.748Q92.176,56.147,88.224,52.955Zm1.368-8.588a6.536,6.536,0,0,0,2.66,5.51q2.66,2.014,7.448,2.014a14.222,14.222,0,0,0,7.828-2.09,12.479,12.479,0,0,0,4.864-6.043V37.223H99.852Q89.592,37.223,89.592,44.367ZM103.8,8.305a18.255,18.255,0,0,1-2.964-2.242,20.78,20.78,0,0,0-2.166-1.634,3.191,3.191,0,0,0-1.71-.494,3.462,3.462,0,0,0-2.812,1.292A5.777,5.777,0,0,0,93.012,8.8H89.744a10.127,10.127,0,0,1,1.976-6.08A5.911,5.911,0,0,1,96.584.439a6.093,6.093,0,0,1,3.078.76,20.126,20.126,0,0,1,3.078,2.281,17.906,17.906,0,0,0,2.052,1.6,3.208,3.208,0,0,0,1.748.532,3.423,3.423,0,0,0,2.736-1.254A5.825,5.825,0,0,0,110.492.9h3.268a9.829,9.829,0,0,1-1.976,5.966A5.955,5.955,0,0,1,106.92,9.1,6.073,6.073,0,0,1,103.8,8.305Z" transform="translate(50.891 28.952)" stroke="rgba(0,0,0,0)" stroke-miterlimit="10" stroke-width="1"/>
      <path id="União_6" data-name="União 6" d="M40.9,86.41c-1.471-1.409-1.6-3.6-1.6-6.3v-6.53h-.015V38.494c-5.349.3-10.429,1.61-14.014,3.749a27.812,27.812,0,0,1,0-7.005,56.258,56.258,0,0,1,1.958-8.445,24.379,24.379,0,0,0-3.883,7.022A35.26,35.26,0,0,0,21.9,42.678C17.074,38.083,6.528,36.995,0,41.1,0,41.1.686,9.82,38.927,5.166V2.748c0-.04,0-.081,0-.122a2.754,2.754,0,0,1,5.5,0q0,.047,0,.094V5.166c37.862,3.783,39.2,35.616,39.2,35.616-4.537-2.364-15-3.452-22.121,1.9a43.955,43.955,0,0,0-1.665-7.859,17.8,17.8,0,0,0-2.929-5.357s.671,3.584.9,6.779a45.231,45.231,0,0,1,0,6A30.935,30.935,0,0,0,44.542,38.53V73.583h-.026v6.53a3.867,3.867,0,0,0,.8,2.735,3.278,3.278,0,0,0,2.528.942,5.048,5.048,0,0,0,3.218-1.011l1.609,4.091a6.772,6.772,0,0,1-2.459,1.241,11.068,11.068,0,0,1-3.057.414A8.675,8.675,0,0,1,40.9,86.41Z" transform="translate(0 0)" fill="#2485f3"/>
    </g>
    <rect id="Retângulo_714" data-name="Retângulo 714" width="11.851" height="5.255" transform="translate(-4.008 314.904)" fill="#2485f3"/>
  </g>
</svg>
