<?xml version="1.0" encoding="UTF-8"?>
<svg width="51px" height="51px" viewBox="0 0 51 51" version="1.1" xmlns="http://www.w3.org/2000/svg" xmlns:xlink="http://www.w3.org/1999/xlink">
    <!-- Generator: Sketch 50.2 (55047) - http://www.bohemiancoding.com/sketch -->
    <title>paper-plane</title>
    <desc>Created with Sketch.</desc>
    <defs></defs>
    <g id="SIGN-IN-/-SIGN-UP" stroke="none" stroke-width="1" fill="none" fill-rule="evenodd">
        <g id="VerifyEmailSentAgain" transform="translate(-479.000000, -369.000000)" fill="#9E9E9E" fill-rule="nonzero">
            <g id="Group" transform="translate(322.000000, 60.000000)">
                <g id="paper-plane" transform="translate(157.000000, 309.000000)">
                    <path d="M49.5073242,0.128320313 C49.2027344,-0.0455078125 48.828125,-0.042578125 48.5263672,0.1359375 L30.6304688,10.7183594 C30.1662109,10.9928711 30.0124023,11.5916992 30.2869141,12.055957 C30.5613281,12.5201172 31.1601563,12.6739258 31.6245117,12.3995117 L44.4645508,4.80683594 L20.5479492,29.6225586 L8.65263672,25.9833008 L24.1765625,16.8036133 C24.6408203,16.5290039 24.7946289,15.9301758 24.5201172,15.465918 C24.2457031,15.0017578 23.6467773,14.8477539 23.1825195,15.1223633 L5.75292969,25.4289063 C5.41992188,25.6258789 5.23447266,26.0007812 5.28027344,26.3850586 C5.32607422,26.7693359 5.59433594,27.0902344 5.96425781,27.203418 L20.1702148,31.5495117 L26.4375,42.9570312 C26.444043,42.9688477 26.4507813,42.9788086 26.4577148,42.9876953 C26.5623047,43.1621094 26.719043,43.3045898 26.9145508,43.3868164 C27.0369141,43.4382813 27.1655273,43.4633789 27.2932617,43.4633789 C27.5435547,43.4633789 27.7899414,43.3670898 27.9759766,43.1851562 L35.1824219,36.1421875 L48.7376953,40.2892578 C48.8314453,40.3178711 48.9276367,40.3320312 49.0233398,40.3320312 C49.2299805,40.3320312 49.434082,40.2664062 49.6041992,40.1405273 C49.853125,39.9563477 50,39.6650391 50,39.3554688 L50,0.9765625 C50,0.625878906 49.8119141,0.302050781 49.5073242,0.128320313 Z M26.4907227,32.1513672 C26.3776367,32.3147461 26.3169922,32.5086914 26.3169922,32.7074219 L26.3169922,38.6811523 L22.0374023,30.8916016 L40.975,11.2421875 L26.4907227,32.1513672 Z M28.2701172,40.1668945 L28.2701172,34.0275391 L33.0542969,35.4912109 L28.2701172,40.1668945 Z M48.046875,38.0354492 L28.8575195,32.1647461 L48.046875,4.46328125 L48.046875,38.0354492 Z" id="Shape"></path>
                    <path d="M16.0569336,33.9430664 C15.6754883,33.5617187 15.0573242,33.5617187 14.6757812,33.9430664 L5.559375,43.0594727 C5.17802734,43.4408203 5.17802734,44.0591797 5.559375,44.440625 C5.75019531,44.63125 6.00009766,44.7265625 6.25,44.7265625 C6.49990234,44.7265625 6.74980469,44.63125 6.94052734,44.4405273 L16.0569336,35.3241211 C16.4382812,34.9428711 16.4382812,34.3245117 16.0569336,33.9430664 Z" id="Shape"></path>
                    <path d="M3.91318359,46.0867187 C3.53173828,45.7055664 2.91357422,45.7055664 2.53212891,46.0868164 L0.286035156,48.3329102 C-0.0953125,48.7142578 -0.0953125,49.3326172 0.286035156,49.7140625 C0.476757812,49.9046875 0.726660156,50 0.9765625,50 C1.22646484,50 1.47636719,49.9045898 1.66708984,49.7139648 L3.91318359,47.4678711 C4.29453125,47.0865234 4.29453125,46.4681641 3.91318359,46.0867187 Z" id="Shape"></path>
                    <path d="M13.9305664,48.2753906 C13.7490234,48.09375 13.4970703,47.9892578 13.2402344,47.9892578 C12.9823242,47.9892578 12.7314453,48.09375 12.5498047,48.2753906 C12.3681641,48.4570312 12.2636719,48.7080078 12.2636719,48.9658203 C12.2636719,49.2226562 12.3680664,49.4746094 12.5498047,49.65625 C12.7314453,49.8378906 12.9833984,49.9423828 13.2402344,49.9423828 C13.4970703,49.9423828 13.7490234,49.8378906 13.9305664,49.65625 C14.112207,49.4746094 14.2167969,49.2226562 14.2167969,48.9658203 C14.2167969,48.7080078 14.1123047,48.4570312 13.9305664,48.2753906 Z" id="Shape"></path>
                    <path d="M21.1963867,41.0092773 C20.8152344,40.6279297 20.1970703,40.6279297 19.815332,41.0092773 L14.9866211,45.8378906 C14.6052734,46.2192383 14.6052734,46.8375977 14.9866211,47.2189453 C15.1773438,47.409668 15.4272461,47.5049805 15.6771484,47.5049805 C15.9270508,47.5049805 16.1769531,47.4095703 16.3676758,47.2189453 L21.1963867,42.390332 C21.5777344,42.0089844 21.5777344,41.390625 21.1963867,41.0092773 Z" id="Shape"></path>
                    <path d="M37.8617188,40.6385742 C37.4802734,40.2573242 36.8621094,40.2573242 36.4806641,40.6385742 L31.6388672,45.4803711 C31.2575195,45.8617187 31.2575195,46.4800781 31.6388672,46.8615234 C31.8295898,47.0521484 32.0794922,47.1475586 32.3293945,47.1475586 C32.5792969,47.1475586 32.8291992,47.0521484 33.0199219,46.8615234 L37.8617188,42.0197266 C38.2430664,41.6383789 38.2430664,41.0200195 37.8617188,40.6385742 Z" id="Shape"></path>
                    <path d="M27.6855469,13.3115234 C27.5039062,13.1298828 27.2519531,13.0253906 26.9951172,13.0253906 C26.7382812,13.0253906 26.4863281,13.1298828 26.3046875,13.3115234 C26.1231445,13.4931641 26.0185547,13.7451172 26.0185547,14.0029297 C26.0185547,14.2597656 26.1230469,14.5107422 26.3046875,14.6923828 C26.4863281,14.875 26.7382812,14.9785156 26.9951172,14.9785156 C27.2519531,14.9785156 27.5039062,14.875 27.6855469,14.6923828 C27.8670898,14.5107422 27.9716797,14.2597656 27.9716797,14.0029297 C27.9716797,13.7451172 27.8671875,13.4931641 27.6855469,13.3115234 Z" id="Shape"></path>
                </g>
            </g>
        </g>
    </g>
</svg>