<svg xmlns="http://www.w3.org/2000/svg" width="83.627" height="88.524" viewBox="0 0 83.627 88.524">
  <path id="União_6" data-name="União 6" d="M40.9,86.41c-1.471-1.409-1.6-3.6-1.6-6.3v-6.53h-.015V38.494c-5.349.3-10.429,1.61-14.014,3.749a27.812,27.812,0,0,1,0-7.005,56.258,56.258,0,0,1,1.958-8.445,24.379,24.379,0,0,0-3.883,7.022A35.26,35.26,0,0,0,21.9,42.678C17.074,38.083,6.528,36.995,0,41.1,0,41.1.686,9.82,38.927,5.166V2.748c0-.04,0-.081,0-.122a2.754,2.754,0,0,1,5.5,0q0,.047,0,.094V5.166c37.862,3.783,39.2,35.616,39.2,35.616-4.537-2.364-15-3.452-22.121,1.9a43.955,43.955,0,0,0-1.665-7.859,17.8,17.8,0,0,0-2.929-5.357s.671,3.584.9,6.779a45.231,45.231,0,0,1,0,6A30.935,30.935,0,0,0,44.542,38.53V73.583h-.026v6.53a3.867,3.867,0,0,0,.8,2.735,3.278,3.278,0,0,0,2.528.942,5.048,5.048,0,0,0,3.218-1.011l1.609,4.091a6.772,6.772,0,0,1-2.459,1.241,11.068,11.068,0,0,1-3.057.414A8.675,8.675,0,0,1,40.9,86.41Z" fill="#2485f3"/>
</svg>
